<?xml version="1.0" encoding="utf-8"?>
<!-- Generator: Adobe Illustrator 22.0.1, SVG Export Plug-In . SVG Version: 6.00 Build 0)  -->
<svg version="1.1" id="Ebene_1" xmlns="http://www.w3.org/2000/svg" xmlns:xlink="http://www.w3.org/1999/xlink" x="0px" y="0px"
	 viewBox="0 0 387.5 114.5" enable-background="new 0 0 387.5 114.5" xml:space="preserve">
<path d="M348.5,62.4h11.2v-21c0-5.5,1.8-14.2,9.8-14.2c7.2,0,7.3,7.1,7.3,12.3v22.9h11.2V35.3c0-9.6-4.4-16.8-14.6-16.8
	c-5.8,0-10.6,1.9-14.1,6.8h-0.2v-5.8h-10.6V62.4z"/>
<path d="M225.2,62.4H236V-0.1h-11.2v24.6h-0.2c-3.3-4.1-7.2-6-12.8-6c-13.2,0-18,10.5-18,22.3c0,11.7,4.8,22.6,18,22.6
	c5.3,0,9.8-1.7,13.2-5.8h0.2V62.4z M205.5,40.8c0-5.7,2-13.7,9.2-13.7c7.2,0,10,7.7,10,13.7c0,6.1-2.4,13.9-9.8,13.9
	C207.6,54.7,205.5,46.7,205.5,40.8"/>
<rect x="7.9" y="-0.1" fill="none" width="380" height="90.3"/>
<path d="M244,11.7h11.2V1H244V11.7z M244,62.4h11.2V19.5H244V62.4z"/>
<g>
	<defs>
		<rect id="SVGID_1_" x="7.9" y="-0.1" width="380" height="90.3"/>
	</defs>
	<clipPath id="SVGID_2_">
		<use xlink:href="#SVGID_1_"  overflow="visible"/>
	</clipPath>
	<path clip-path="url(#SVGID_2_)" d="M293.2,19.9c-3.1-0.9-6.3-1.4-10.8-1.4c-13.4,0-20.7,9.8-20.7,22.2c0,13.1,7.1,22.6,21.2,22.6
		c4.6,0,7.9-0.4,11.2-1.4l-0.5-9.2c-1.9,0.8-5.4,2-8.6,2c-7.8,0-11.6-6.1-11.6-14c0-8.1,4.4-13.6,11.3-13.6c3.4,0,5.6,0.7,7.6,1.6
		L293.2,19.9z"/>
	<path clip-path="url(#SVGID_2_)" d="M113.6,50c0-6.6,7.4-7.4,12.4-7.4h4.8c0,3.3-0.5,6.4-2.3,8.8c-1.8,2.3-4.4,3.8-7.8,3.8
		C116.7,55.2,113.6,53.6,113.6,50 M108,31.3c3.7-2.8,8.5-4.7,13.2-4.7c6.6,0,9.7,2.3,9.7,9.2h-6.2c-4.7,0-10.2,0.4-14.4,2.5
		c-4.3,2.1-7.3,5.8-7.3,12.2c0,8.2,7.4,12.7,15,12.7c5.1,0,10.7-2.7,13.2-7.4h0.2c0.1,1.3,0.1,4.2,0.5,6.4h9.8
		c-0.3-3.3-0.4-6.3-0.5-9.6c-0.1-3.2-0.2-6.4-0.2-10.7v-5.5c0-12.7-5.4-18.1-18.5-18.1c-4.7,0-10.6,1.2-14.9,3.3L108,31.3z"/>
	<path clip-path="url(#SVGID_2_)" d="M187.7,19.5h-11.2v21c0,5.5-1.8,14.2-9.8,14.2c-7.2,0-7.2-7.1-7.2-12.3V19.5h-11.2v27.1
		c0,9.7,4.4,16.8,14.6,16.8c5.8,0,10.7-2.7,14.1-6.8h0.2v5.8h10.6V19.5z"/>
	<path clip-path="url(#SVGID_2_)" d="M309.5,39.9c0-6.4,3.5-12.7,10.7-12.7c7.3,0,10.8,6.2,10.8,12.7c0,7.2-2.3,14.8-10.8,14.8
		C311.7,54.7,309.5,47,309.5,39.9 M297.8,41.2c0,12.3,8.3,22.1,22.4,22.1c14.3,0,22.5-9.8,22.5-22.1c0-14.2-9.7-22.7-22.5-22.7
		C307.5,18.5,297.8,27.1,297.8,41.2"/>
</g>
<path fill="#004C7D" d="M61.5,69.7H21.2V59.1h40.3V69.7z M61.5,50.8H21.2V40.1h40.3V50.8z M82.7,54.9c0-22.7-18.4-41.1-41.2-41.1
	c-22.7,0-41.2,18.4-41.2,41.1c0,22.7,18.4,41.1,41.2,41.1C64.3,96.1,82.7,77.7,82.7,54.9"/>
<g>
	<path fill="#7087AC" d="M107.3,66.3v24.5h-1.9V66.3H107.3z M117.4,73.4l-7.5,7.7l8,9.6h-2.7l-7.8-9.5l7.6-7.8H117.4z"/>
	<path fill="#7087AC" d="M121.5,77.8c0.3-3.2,2.5-4.8,6.2-4.8c2.8,0,4.8,1.1,5.4,2.9c0.3,0.8,0.3,1.6,0.3,3.7V86
		c0,3.2,0,3.5,0.4,4.8h-1.9c-0.3-0.9-0.3-1.3-0.4-2.5c-1.1,1.9-2.8,2.9-5.1,2.9c-3.3,0-5.4-2-5.4-5c0-3.8,2.8-5.6,10.6-6.7v-0.9
		c0-2.8-1.1-3.9-3.8-3.9c-2.5,0-3.8,1-4.1,3.1H121.5z M131.4,81c-6.4,1.2-8.5,2.6-8.5,5.2c0,2,1.4,3.3,3.6,3.3
		c1.8,0,3.4-0.9,4.2-2.3c0.5-0.9,0.8-2.2,0.8-4.2V81z"/>
	<path fill="#7087AC" d="M148.1,78.1c-0.3-2.3-1.4-3.4-3.8-3.4c-2.2,0-3.7,1.2-3.7,2.9c0,1.5,0.9,2.2,4,3.1c2.9,0.9,4,1.4,4.7,2.2
		c0.6,0.7,1,1.8,1,3c0,3.2-2.4,5.3-6,5.3c-3.9,0-6.2-2.1-6.2-5.6h1.9c0.3,2.6,1.7,3.9,4.3,3.9c2.4,0,4-1.4,4-3.4
		c0-1-0.4-1.8-1.1-2.3c-0.6-0.4-0.7-0.5-3.9-1.5c-1.9-0.6-2.9-1.1-3.6-1.9c-0.6-0.7-1-1.8-1-2.8c0-2.8,2.3-4.7,5.6-4.7
		c3.6,0,5.5,1.8,5.6,5.1H148.1z"/>
	<path fill="#7087AC" d="M163.9,78.1c-0.3-2.3-1.4-3.4-3.8-3.4c-2.2,0-3.7,1.2-3.7,2.9c0,1.5,0.9,2.2,4,3.1c2.9,0.9,4,1.4,4.7,2.2
		c0.6,0.7,1,1.8,1,3c0,3.2-2.4,5.3-6,5.3c-3.9,0-6.2-2.1-6.2-5.6h1.9c0.3,2.6,1.7,3.9,4.3,3.9c2.4,0,4-1.4,4-3.4
		c0-1-0.4-1.8-1.1-2.3c-0.6-0.4-0.7-0.5-3.9-1.5c-1.9-0.6-2.9-1.1-3.6-1.9c-0.6-0.7-1-1.8-1-2.8c0-2.8,2.3-4.7,5.6-4.7
		c3.6,0,5.5,1.8,5.6,5.1H163.9z"/>
	<path fill="#7087AC" d="M171.9,82.3c0.1,4.7,1.9,7.2,5.3,7.2c2,0,3.2-0.8,4.2-2.9l1.9,0.3c-1.1,2.8-3.2,4.2-6.1,4.2
		c-4.5,0-7.3-3.4-7.3-8.9c0-5.7,2.8-9.3,7.1-9.3c4.1,0,6.7,3.4,6.7,8.6v0.7H171.9z M181.7,80.7c-0.2-3.8-2-6-4.8-6
		c-2.7,0-4.5,2.2-5,6H181.7z"/>
	<path fill="#7087AC" d="M190.1,73.4c0.3,0.8,0.3,1.3,0.3,2.6c1.2-2.1,2.9-3.1,5.3-3.1c2.5,0,4.4,1.1,5,2.9c0.4,1.1,0.4,1.5,0.4,4.9
		v9.9h-1.9V80.7c0-2.8-0.1-3.4-0.5-4.3c-0.5-1.1-1.6-1.7-3.2-1.7c-3.2,0-5.1,2.3-5.1,6.1v10h-1.9V79.2c0-4.2,0-4.2-0.4-5.8H190.1z"
		/>
	<path fill="#7087AC" d="M206.7,77.8c0.3-3.2,2.5-4.8,6.2-4.8c2.8,0,4.8,1.1,5.4,2.9c0.3,0.8,0.3,1.6,0.3,3.7V86
		c0,3.2,0,3.5,0.4,4.8h-1.9c-0.3-0.9-0.3-1.3-0.4-2.5c-1.1,1.9-2.8,2.9-5.1,2.9c-3.3,0-5.4-2-5.4-5c0-3.8,2.8-5.6,10.6-6.7v-0.9
		c0-2.8-1.1-3.9-3.8-3.9c-2.5,0-3.8,1-4.1,3.1H206.7z M216.6,81c-6.4,1.2-8.5,2.6-8.5,5.2c0,2,1.4,3.3,3.6,3.3
		c1.8,0,3.4-0.9,4.2-2.3c0.5-0.9,0.8-2.2,0.8-4.2V81z"/>
	<path fill="#7087AC" d="M225.9,73.4c0.2,0.9,0.3,1.8,0.3,2.6c0,0.2,0,0.6,0,1.1c1.2-3,2.5-4.2,4.4-4.2c0.8,0,1.5,0.2,2.3,0.6v1.9
		c-1.2-0.5-1.6-0.6-2.2-0.6c-1.4,0-2.6,1.1-3.5,2.9c-0.6,1.3-0.8,2.9-0.8,5.4v7.7h-1.9V79.6c0-3.8,0-4.3-0.3-6.2H225.9z"/>
	<path fill="#7087AC" d="M246.6,79c-0.4-2.8-1.9-4.4-4.2-4.4c-3.1,0-5.2,3-5.2,7.4c0,4.4,2.1,7.4,5.3,7.4c2.5,0,4-1.7,4.3-4.6h2
		c-0.4,4.1-2.6,6.3-6.2,6.3c-4.5,0-7.4-3.6-7.4-9c0-5.5,2.9-9.2,7.2-9.2c3.6,0,5.8,2.2,6.1,6.1H246.6z"/>
	<path fill="#7087AC" d="M255.4,66.3v9.2c1.4-1.8,2.7-2.5,5-2.5c2.1,0,3.8,0.8,4.7,2.3c0.6,1,0.8,2.1,0.8,5.6v9.9h-1.9V80.7
		c0-2.7-0.1-3.5-0.5-4.3c-0.6-1.1-1.7-1.7-3.2-1.7c-3.1,0-4.8,2.2-4.8,6.3v9.7h-1.9V66.3H255.4z"/>
	<path fill="#7087AC" d="M274.2,67.7c0,0.9-0.7,1.6-1.6,1.6c-1,0-1.6-0.7-1.6-1.6c0-0.9,0.7-1.6,1.6-1.6
		C273.5,66,274.2,66.7,274.2,67.7z M273.7,73.4v17.3h-2.1V73.4H273.7z"/>
	<path fill="#7087AC" d="M279.2,73.4l5.1,15.2l5.1-15.2h1.9L285.2,91h-1.9l-6.1-17.6H279.2z"/>
	<path fill="#7087AC" d="M317.9,82.1c0,5.4-3,9.1-7.3,9.1c-4.4,0-7.3-3.7-7.3-9.2c0-5.3,3-9,7.3-9C315,73,317.9,76.7,317.9,82.1z
		 M305.4,82c0,4.5,2.1,7.5,5.3,7.5c3.1,0,5.3-3.1,5.3-7.4c0-4.4-2.2-7.4-5.3-7.4C307.6,74.7,305.4,77.7,305.4,82z"/>
	<path fill="#7087AC" d="M324.3,73.4c0.3,0.8,0.3,1.3,0.3,2.6c1.2-2.1,2.9-3.1,5.3-3.1c2.5,0,4.4,1.1,5,2.9c0.4,1.1,0.4,1.5,0.4,4.9
		v9.9h-1.9V80.7c0-2.8-0.1-3.4-0.5-4.3c-0.5-1.1-1.6-1.7-3.2-1.7c-3.2,0-5.1,2.3-5.1,6.1v10h-1.9V79.2c0-4.2,0-4.2-0.4-5.8H324.3z"
		/>
	<path fill="#7087AC" d="M343.3,66.3v24.5h-2.1V66.3H343.3z"/>
	<path fill="#7087AC" d="M351.8,67.7c0,0.9-0.7,1.6-1.6,1.6c-1,0-1.6-0.7-1.6-1.6c0-0.9,0.7-1.6,1.6-1.6
		C351.1,66,351.8,66.7,351.8,67.7z M351.2,73.4v17.3h-2.1V73.4H351.2z"/>
	<path fill="#7087AC" d="M358.5,73.4c0.3,0.8,0.3,1.3,0.3,2.6c1.2-2.1,2.9-3.1,5.3-3.1c2.5,0,4.4,1.1,5,2.9c0.4,1.1,0.4,1.5,0.4,4.9
		v9.9h-1.9V80.7c0-2.8-0.1-3.4-0.5-4.3c-0.5-1.1-1.6-1.7-3.2-1.7c-3.2,0-5.1,2.3-5.1,6.1v10h-1.9V79.2c0-4.2,0-4.2-0.4-5.8H358.5z"
		/>
	<path fill="#7087AC" d="M376.5,82.3c0.1,4.7,1.9,7.2,5.3,7.2c2,0,3.2-0.8,4.2-2.9l1.9,0.3c-1.1,2.8-3.2,4.2-6.1,4.2
		c-4.5,0-7.3-3.4-7.3-8.9c0-5.7,2.8-9.3,7.1-9.3c4.1,0,6.7,3.4,6.7,8.6v0.7H376.5z M386.3,80.7c-0.2-3.8-2-6-4.8-6
		c-2.7,0-4.5,2.2-5,6H386.3z"/>
</g>
</svg>
