<?xml version="1.0" encoding="UTF-8" standalone="no"?>
<svg
   xmlns:dc="http://purl.org/dc/elements/1.1/"
   xmlns:cc="http://creativecommons.org/ns#"
   xmlns:rdf="http://www.w3.org/1999/02/22-rdf-syntax-ns#"
   xmlns:svg="http://www.w3.org/2000/svg"
   xmlns="http://www.w3.org/2000/svg"
   xmlns:sodipodi="http://sodipodi.sourceforge.net/DTD/sodipodi-0.dtd"
   xmlns:inkscape="http://www.inkscape.org/namespaces/inkscape"
   viewBox="0 0 914.8278 202.05201"
   height="202.052"
   width="914.82782"
   xml:space="preserve"
   id="svg2"
   version="1.1"
   sodipodi:docname="20190626 fiskaltrust audicon.svg"
   inkscape:version="0.92.4 (5da689c313, 2019-01-14)"><sodipodi:namedview
     pagecolor="#ffffff"
     bordercolor="#666666"
     borderopacity="1"
     objecttolerance="10"
     gridtolerance="10"
     guidetolerance="10"
     inkscape:pageopacity="0"
     inkscape:pageshadow="2"
     inkscape:window-width="1920"
     inkscape:window-height="1017"
     id="namedview23"
     showgrid="false"
     fit-margin-top="0"
     fit-margin-left="0"
     fit-margin-right="0"
     fit-margin-bottom="0"
     inkscape:zoom="1.4311964"
     inkscape:cx="540.86909"
     inkscape:cy="119.29909"
     inkscape:window-x="2992"
     inkscape:window-y="-8"
     inkscape:window-maximized="1"
     inkscape:current-layer="svg2" /><metadata
     id="metadata8"><rdf:RDF><cc:Work
         rdf:about=""><dc:format>image/svg+xml</dc:format><dc:type
           rdf:resource="http://purl.org/dc/dcmitype/StillImage" /><dc:title></dc:title></cc:Work></rdf:RDF></metadata><defs
     id="defs6"><clipPath
       id="clipPath28"
       clipPathUnits="userSpaceOnUse"><path
         id="path26"
         d="m 684.461,325.91 h 3081.77 V 931.664 H 684.461 Z"
         inkscape:connector-curvature="0" /></clipPath></defs><g
     transform="matrix(1.3333333,0,0,-1.3333333,-91.261464,237.83066)"
     id="g10"><g
       transform="scale(0.1)"
       id="g12"><path
         id="path14"
         style="fill:#5a5758;fill-opacity:1;fill-rule:nonzero;stroke:none"
         d="M 990.781,1526.36 H 786.727 v 186.96 h 233.453 l 3.07,-74.51 h 36.23 v 109.37 H 746.055 690.34 v -30.41 l 55.715,-4.45 v -428.27 l -55.715,-4.44 v -30.08 h 370.85 v 109.03 h -36.23 l -3.08,-74.51 H 786.727 v 206.45 h 204.054 z m 131.259,-275.83 h 152.1 v 30.08 l -55.71,4.44 v 335.3 h -96.39 v -30.42 l 55.72,-4.44 v -300.44 l -55.72,-4.44 z m 96.39,533.2 h -40.67 v -57.42 h 40.67 z m 102.9,-533.2 h 152.44 v 30.08 l -55.72,4.44 v 223.54 c 7.98,25.06 21.02,45.17 39.14,60.32 18.12,15.15 41.53,22.73 70.24,22.73 29.16,0 51.66,-8.77 67.5,-26.32 15.84,-17.55 23.76,-47.51 23.76,-89.89 v -190.38 l -55.71,-4.44 v -30.08 h 152.44 v 30.08 l -55.72,4.44 v 190.72 c 0,51.96 -10.48,90.18 -31.44,114.68 -20.97,24.49 -51.5,36.74 -91.6,36.74 -27.58,0 -51.44,-6.21 -71.61,-18.63 -20.16,-12.42 -36.18,-30.02 -48.02,-52.81 l -3.76,64.6 h -91.94 v -30.42 l 55.71,-4.44 v -300.44 l -55.71,-4.44 z m 684.3,497.65 h -96.39 v -30.41 l 55.72,-4.45 v -302.49 c 0,-54 16.29,-95.42 48.87,-124.24 32.59,-28.83 75.08,-43.24 127.49,-43.24 53.32,0 96.56,14.36 129.72,43.07 33.15,28.71 49.73,70.18 49.73,124.41 v 302.49 l 55.71,4.45 v 30.41 h -152.1 v -30.41 l 55.71,-4.45 v -302.49 c 0,-42.61 -12.87,-75.42 -38.62,-98.44 -25.75,-23.01 -59.13,-34.52 -100.15,-34.52 -40.33,0 -73.03,11.56 -98.09,34.7 -25.07,23.12 -37.6,55.88 -37.6,98.26 v 302.49 l 55.71,4.45 v 30.41 z m 402.99,-497.65 h 152.44 v 30.08 l -55.71,4.44 v 223.54 c 7.97,25.06 21.02,45.17 39.14,60.32 18.11,15.15 41.53,22.73 70.24,22.73 29.16,0 51.66,-8.77 67.5,-26.32 15.84,-17.55 23.76,-47.51 23.76,-89.89 v -190.38 l -55.72,-4.44 v -30.08 h 152.44 v 30.08 l -55.71,4.44 v 190.72 c 0,51.96 -10.48,90.18 -31.44,114.68 -20.97,24.49 -51.5,36.74 -91.61,36.74 -27.57,0 -51.44,-6.21 -71.6,-18.63 -20.17,-12.42 -36.18,-30.02 -48.02,-52.81 l -3.76,64.6 h -91.95 v -30.42 l 55.72,-4.44 v -300.44 l -55.72,-4.44 z m 496.99,464.5 v -94.68 h -63.58 v -33.49 h 63.58 v -240.97 c 0,-35.55 7.23,-61.52 21.7,-77.93 14.47,-16.41 34.7,-24.61 60.67,-24.61 9.8,0 19.6,0.8 29.4,2.39 9.79,1.6 18.11,3.88 24.95,6.84 l -6.15,30.42 c -8.21,-1.37 -15.44,-2.34 -21.71,-2.91 -6.27,-0.57 -12.7,-0.85 -19.31,-0.85 -14.59,0 -26.27,5.07 -35.03,15.21 -8.78,10.14 -13.16,27.28 -13.16,51.44 v 240.97 h 81.34 v 33.49 h -81.34 v 94.68 z m 422.82,-458.86 c 21.19,8.54 38.73,20.1 52.63,34.69 l -17.43,28.03 c -12.76,-13.22 -28.14,-23.36 -46.14,-30.42 -18.01,-7.07 -39.65,-10.6 -64.94,-10.6 -36.01,0 -65.12,14.07 -87.33,42.22 -22.22,28.13 -33.33,62.94 -33.33,104.41 v 9.91 h 261.14 v 34.87 c 0,47.85 -12.99,86.13 -38.97,114.84 -25.98,28.71 -61.64,43.07 -106.98,43.07 -43.07,0 -79.81,-17.43 -110.23,-52.3 -30.42,-34.86 -45.63,-78.73 -45.63,-131.59 v -18.8 c 0,-52.63 15.26,-95.99 45.8,-130.05 30.53,-34.07 69.04,-51.1 115.53,-51.1 29.39,0 54.68,4.27 75.88,12.82 z m -4.45,303.69 c 18.91,-21.66 28.37,-48.54 28.37,-80.67 v -10.25 h -216.7 l -0.68,1.7 c 3.42,34.87 15.43,63.86 36.06,86.99 20.62,23.13 45.97,34.69 76.05,34.69 32.35,0 57.99,-10.82 76.9,-32.46 z m 181.17,60.49 h -55.71 v -30.42 l 55.71,-4.44 v -300.44 l -55.71,-4.44 v -30.08 h 152.09 v 30.08 l -55.71,4.44 v 220.8 c 7.06,25.29 18.85,45.17 35.38,59.64 16.52,14.47 37.65,21.71 63.4,21.71 l 30.42,-2.05 5.47,38.28 c -3.19,0.91 -7.24,1.76 -12.13,2.56 -4.91,0.8 -9.97,1.2 -15.21,1.2 -24.84,0 -46.32,-6.44 -64.43,-19.31 -18.12,-12.88 -32.42,-30.71 -42.9,-53.49 v 4.44 l -5.13,61.52 z m 206.8,-369.82 h 152.44 v 30.08 l -55.71,4.44 v 223.54 c 7.97,25.06 21.02,45.17 39.13,60.32 18.12,15.15 41.53,22.73 70.24,22.73 29.17,0 51.67,-8.77 67.51,-26.32 15.83,-17.55 23.75,-47.51 23.75,-89.89 v -190.38 l -55.71,-4.44 v -30.08 h 152.44 v 30.08 l -55.71,4.44 v 190.72 c 0,51.96 -10.49,90.18 -31.45,114.68 -20.96,24.49 -51.5,36.74 -91.6,36.74 -27.57,0 -51.44,-6.21 -71.61,-18.63 -20.16,-12.42 -36.17,-30.02 -48.02,-52.81 l -3.76,64.6 h -91.94 v -30.42 l 55.71,-4.44 v -300.44 l -55.71,-4.44 z m 679.85,5.64 c 21.19,8.54 38.73,20.1 52.63,34.69 l -17.43,28.03 c -12.76,-13.22 -28.14,-23.36 -46.14,-30.42 -18,-7.07 -39.65,-10.6 -64.94,-10.6 -36.01,0 -65.11,14.07 -87.33,42.22 -22.22,28.13 -33.33,62.94 -33.33,104.41 v 9.91 h 261.14 v 34.87 c 0,47.85 -12.99,86.13 -38.97,114.84 -25.98,28.71 -61.64,43.07 -106.98,43.07 -43.07,0 -79.81,-17.43 -110.23,-52.3 -30.42,-34.86 -45.63,-78.73 -45.63,-131.59 v -18.8 c 0,-52.63 15.26,-95.99 45.8,-130.05 30.53,-34.07 69.04,-51.1 115.53,-51.1 29.39,0 54.69,4.27 75.88,12.82 z m -4.45,303.69 c 18.91,-21.66 28.37,-48.54 28.37,-80.67 v -10.25 h -216.7 l -0.68,1.7 c 3.42,34.87 15.43,63.86 36.06,86.99 20.62,23.13 45.97,34.69 76.05,34.69 32.35,0 57.99,-10.82 76.9,-32.46 z m 171.94,189.01 v -463.82 l -55.71,-4.44 v -30.08 h 152.1 v 30.08 l -55.72,4.44 v 225.93 c 8.89,24.38 22.73,43.92 41.53,58.62 18.8,14.69 42.21,22.04 70.24,22.04 27.8,0 49.62,-8.71 65.46,-26.15 15.83,-17.43 23.75,-46.2 23.75,-86.3 v -194.14 l -55.71,-4.44 v -30.08 h 152.44 v 30.08 l -55.71,4.44 v 193.46 c 0,50.81 -10.43,88.29 -31.28,112.45 -20.85,24.15 -50.75,36.23 -89.72,36.23 -27.34,0 -51.27,-6.15 -71.78,-18.46 -20.5,-12.3 -36.91,-29.51 -49.22,-51.61 v 226.61 h -96.38 v -30.42 z m 432.73,-163.38 v -300.44 l -55.71,-4.44 v -30.08 h 152.44 v 30.08 l -55.72,4.44 v 225.24 c 6.84,24.84 18.75,44.61 35.72,59.31 16.98,14.69 40.05,22.04 69.22,22.04 28.48,0 50.87,-9.63 67.16,-28.88 16.29,-19.26 24.44,-51.22 24.44,-95.87 v -181.84 l -55.72,-4.44 v -30.08 h 152.45 v 30.08 l -55.72,4.44 v 187.31 c 0,2.5 -0.06,4.55 -0.17,6.15 -0.11,1.59 -0.17,3.3 -0.17,5.12 4.1,31.45 14.75,57.31 31.96,77.59 17.2,20.28 41.75,30.42 73.66,30.42 28.71,0 51.1,-9.4 67.16,-28.19 16.06,-18.81 24.1,-50.99 24.1,-96.56 v -181.5 l -55.72,-4.78 v -30.08 h 152.79 v 30.08 l -55.72,4.78 v 180.81 c 0,54.91 -10.76,95.48 -32.3,121.68 -21.53,26.2 -52.01,39.31 -91.43,39.31 -29.62,0 -54.74,-7.47 -75.36,-22.39 -20.63,-14.92 -36.52,-35.37 -47.68,-61.35 -8.21,28.25 -21.77,49.27 -40.68,63.06 -18.91,13.78 -42.5,20.68 -70.75,20.68 -27.34,0 -50.93,-5.93 -70.75,-17.78 -19.82,-11.84 -35.67,-28.59 -47.51,-50.24 l -3.76,61.18 h -91.94 v -30.42 z m 844.25,-329.32 c 21.19,8.54 38.74,20.1 52.64,34.69 l -17.43,28.03 c -12.77,-13.22 -28.15,-23.36 -46.15,-30.42 -18,-7.07 -39.65,-10.6 -64.94,-10.6 -36,0 -65.11,14.07 -87.33,42.22 -22.21,28.13 -33.32,62.94 -33.32,104.41 v 9.91 h 261.13 v 34.87 c 0,47.85 -12.99,86.13 -38.96,114.84 -25.98,28.71 -61.65,43.07 -106.99,43.07 -43.06,0 -79.81,-17.43 -110.23,-52.3 -30.42,-34.86 -45.63,-78.73 -45.63,-131.59 v -18.8 c 0,-52.63 15.27,-95.99 45.8,-130.05 30.54,-34.07 69.05,-51.1 115.53,-51.1 29.4,0 54.69,4.27 75.88,12.82 z m -4.44,303.69 c 18.91,-21.66 28.37,-48.54 28.37,-80.67 v -10.25 h -216.7 l -0.69,1.7 c 3.42,34.87 15.44,63.86 36.06,86.99 20.62,23.13 45.97,34.69 76.05,34.69 32.36,0 57.99,-10.82 76.91,-32.46 z m 120.67,-309.33 h 152.44 v 30.08 l -55.72,4.44 v 223.54 c 7.98,25.06 21.02,45.17 39.14,60.32 18.12,15.15 41.53,22.73 70.24,22.73 29.16,0 51.66,-8.77 67.5,-26.32 15.84,-17.55 23.76,-47.51 23.76,-89.89 v -190.38 l -55.71,-4.44 v -30.08 h 152.44 v 30.08 l -55.72,4.44 v 190.72 c 0,51.96 -10.48,90.18 -31.44,114.68 -20.97,24.49 -51.5,36.74 -91.6,36.74 -27.58,0 -51.44,-6.21 -71.61,-18.63 -20.16,-12.42 -36.18,-30.02 -48.02,-52.81 l -3.76,64.6 h -91.94 v -30.42 l 55.71,-4.44 v -300.44 l -55.71,-4.44 z m 861.01,0 h 92.28 v 30.08 l -55.71,4.44 v 498.68 h -41.01 -55.72 v -30.42 l 55.72,-4.44 v -184.23 c -12.54,20.05 -28.26,35.49 -47.17,46.31 -18.92,10.82 -41.25,16.24 -66.99,16.24 -44.67,0 -79.47,-17.72 -104.42,-53.15 -24.95,-35.43 -37.43,-82.66 -37.43,-141.68 v -7.17 c 0,-55.15 12.48,-99.24 37.43,-132.28 24.95,-33.04 59.52,-49.56 103.73,-49.56 26.2,0 48.99,5.25 68.36,15.72 19.37,10.48 35.21,25.41 47.51,44.78 z m -219.09,181.83 c 0,47.17 9.05,85.51 27.17,115.02 18.12,29.51 45.17,44.26 81.18,44.26 27.34,0 49.61,-6.61 66.82,-19.82 17.2,-13.22 30.36,-30.31 39.48,-51.27 v -175 c -9.8,-20.74 -23.53,-37.03 -41.19,-48.88 -17.66,-11.85 -39.6,-17.77 -65.8,-17.77 -36,0 -62.95,13.21 -80.83,39.65 -17.89,26.43 -26.83,61.97 -26.83,106.64 z m 599.18,-176.19 c 21.19,8.54 38.74,20.1 52.64,34.69 l -17.43,28.03 c -12.77,-13.22 -28.15,-23.36 -46.15,-30.42 -18,-7.07 -39.64,-10.6 -64.94,-10.6 -36,0 -65.11,14.07 -87.33,42.22 -22.21,28.13 -33.32,62.94 -33.32,104.41 v 9.91 h 261.13 v 34.87 c 0,47.85 -12.99,86.13 -38.96,114.84 -25.98,28.71 -61.65,43.07 -106.99,43.07 -43.06,0 -79.81,-17.43 -110.23,-52.3 -30.42,-34.86 -45.63,-78.73 -45.63,-131.59 v -18.8 c 0,-52.63 15.27,-95.99 45.8,-130.05 30.54,-34.07 69.05,-51.1 115.53,-51.1 29.4,0 54.69,4.27 75.88,12.82 z m -4.44,303.69 c 18.91,-21.66 28.37,-48.54 28.37,-80.67 v -10.25 h -216.7 l -0.69,1.7 c 3.42,34.87 15.44,63.86 36.06,86.99 20.62,23.13 45.98,34.69 76.05,34.69 32.36,0 57.99,-10.82 76.91,-32.46 z m 181.16,60.49 h -55.71 v -30.42 l 55.71,-4.44 v -300.44 l -55.71,-4.44 v -30.08 h 152.1 v 30.08 l -55.71,4.44 v 220.8 c 7.06,25.29 18.85,45.17 35.37,59.64 16.52,14.47 37.65,21.71 63.41,21.71 l 30.42,-2.05 5.47,38.28 c -3.2,0.91 -7.24,1.76 -12.14,2.56 -4.9,0.8 -9.97,1.2 -15.21,1.2 -24.84,0 -46.31,-6.44 -64.43,-19.31 -18.11,-12.88 -32.41,-30.71 -42.89,-53.49 v 4.44 l -5.13,61.52 h -35.55"
         inkscape:connector-curvature="0" /><g
         transform="scale(10)"
         id="g16" /><path
         id="path18"
         style="fill:#5a5758;fill-opacity:1;fill-rule:nonzero;stroke:none"
         d="m 3978.02,639.871 h -163.38 v -34.519 h 163.38 z m 464.51,-6.832 h -136.37 v -33.16 l 95.7,-1.699 V 477.52 c -9.35,-9.571 -25.52,-18.571 -48.54,-27 -23.01,-8.43 -50.7,-12.649 -83.05,-12.649 -54.47,0 -97.7,20.168 -129.71,60.5 -32.02,40.328 -48.03,92.848 -48.03,157.57 v 11.278 c 0,62.89 16.29,114.16 48.88,153.812 32.58,39.649 77.13,59.469 133.64,59.469 28.48,0 53.43,-4.391 74.86,-13.16 21.41,-8.77 38.84,-20.57 52.29,-35.379 l 7.18,-72.801 h 31.79 v 86.481 c -18.01,21.64 -41.36,38.668 -70.07,51.089 -28.71,12.418 -61.76,18.629 -99.12,18.629 -65.86,0 -119.07,-23.019 -159.62,-69.039 -40.56,-46.031 -60.84,-105.961 -60.84,-179.789 v -10.59 c 0,-74.972 20.28,-135.812 60.84,-182.519 40.55,-46.711 93.19,-70.07 157.91,-70.07 44.2,0 81,6.668 110.4,20 29.39,13.328 50.01,27.277 61.86,41.867 z m 134,147.313 h -55.71 V 749.93 l 55.71,-4.442 V 445.051 l -55.71,-4.442 v -30.078 h 152.1 v 30.078 l -55.72,4.442 v 220.801 c 7.06,25.289 18.86,45.168 35.38,59.636 16.52,14.473 37.65,21.711 63.4,21.711 l 30.42,-2.051 5.47,38.282 c -3.19,0.91 -7.23,1.761 -12.13,2.558 -4.9,0.801 -9.97,1.203 -15.21,1.203 -24.84,0 -46.31,-6.441 -64.43,-19.312 -18.12,-12.879 -32.42,-30.707 -42.9,-53.488 v 4.437 l -5.12,61.524 z m 489.81,-369.821 h 85.45 v 30.078 l -49.56,4.442 v 335.301 h -41.02 -52.63 V 749.93 l 52.63,-4.442 V 516.141 c -7.52,-24.153 -20.45,-43.063 -38.79,-56.731 -18.35,-13.68 -43.01,-20.512 -74,-20.512 -28.26,0 -50.07,9.793 -65.45,29.391 -15.39,19.602 -23.08,51.961 -23.08,97.07 v 214.993 h -40.67 -45.8 V 749.93 l 45.8,-4.442 V 566.051 c 0,-55.602 10.99,-96.621 32.98,-123.051 21.99,-26.441 52.47,-39.648 91.43,-39.648 27.35,0 51.1,5.929 71.27,17.769 20.16,11.848 36.06,28.598 47.68,50.25 z m 176.38,334.957 V 303.199 l -55.71,-4.437 V 268.34 h 152.1 v 30.422 l -55.72,4.437 V 460.43 c 12.31,-18.231 28.2,-32.301 47.68,-42.211 19.49,-9.91 42.22,-14.867 68.19,-14.867 43.98,0 78.5,16.457 103.57,49.386 25.06,32.934 37.59,77.082 37.59,132.453 v 7.168 c 0,59.02 -12.53,106.243 -37.59,141.68 -25.07,35.43 -59.82,53.152 -104.25,53.152 -26.21,0 -49.05,-5.589 -68.53,-16.75 -19.48,-11.171 -35.49,-27 -48.02,-47.511 l -5.13,57.422 h -89.89 V 749.93 Z m 256.69,-160.297 c 0,-44.441 -9.29,-80.101 -27.86,-106.992 -18.57,-26.89 -45.74,-40.328 -81.52,-40.328 -26.43,0 -48.48,5.809 -66.13,17.43 -17.66,11.629 -31.17,27.57 -40.51,47.859 v 177.731 c 8.66,20.961 21.59,37.988 38.8,51.097 17.2,13.102 39.59,19.653 67.16,19.653 36,0 63.35,-14.813 82.03,-44.43 18.68,-29.633 28.03,-67.91 28.03,-114.852 z m 138.44,160.297 V 303.199 l -55.71,-4.437 V 268.34 h 152.1 v 30.422 l -55.72,4.437 V 460.43 c 12.31,-18.231 28.2,-32.301 47.69,-42.211 19.48,-9.91 42.21,-14.867 68.18,-14.867 43.98,0 78.5,16.457 103.57,49.386 25.06,32.934 37.6,77.082 37.6,132.453 v 7.168 c 0,59.02 -12.54,106.243 -37.6,141.68 -25.07,35.43 -59.82,53.152 -104.25,53.152 -26.21,0 -49.05,-5.589 -68.53,-16.75 -19.48,-11.171 -35.49,-27 -48.02,-47.511 l -5.13,57.422 h -89.89 V 749.93 Z m 256.69,-160.297 c 0,-44.441 -9.29,-80.101 -27.86,-106.992 -18.57,-26.89 -45.74,-40.328 -81.51,-40.328 -26.44,0 -48.49,5.809 -66.14,17.43 -17.66,11.629 -31.16,27.57 -40.51,47.859 v 177.731 c 8.66,20.961 21.59,37.988 38.8,51.097 17.2,13.102 39.59,19.653 67.16,19.653 36,0 63.35,-14.813 82.03,-44.43 18.68,-29.633 28.03,-67.91 28.03,-114.852 z m 332.58,-169.019 c 21.19,8.539 38.74,20.109 52.64,34.687 l -17.43,28.032 c -12.77,-13.219 -28.15,-23.36 -46.15,-30.422 -18,-7.071 -39.64,-10.598 -64.94,-10.598 -36,0 -65.11,14.07 -87.33,42.207 -22.21,28.141 -33.32,62.953 -33.32,104.422 v 9.922 h 261.13 v 34.859 c 0,47.848 -12.99,86.129 -38.96,114.84 -25.98,28.707 -61.64,43.07 -106.99,43.07 -43.06,0 -79.81,-17.429 -110.22,-52.3 -30.42,-34.86 -45.63,-78.731 -45.63,-131.59 V 584.5 c 0,-52.629 15.26,-95.988 45.8,-130.051 30.53,-34.07 69.04,-51.097 115.52,-51.097 29.4,0 54.69,4.269 75.88,12.82 z m -4.44,303.68 c 18.91,-21.653 28.37,-48.532 28.37,-80.661 v -10.25 h -216.7 l -0.68,1.707 c 3.41,34.864 15.43,63.852 36.05,86.981 20.62,23.133 45.98,34.699 76.05,34.699 32.36,0 57.99,-10.828 76.91,-32.476"
         inkscape:connector-curvature="0" /><g
         transform="scale(10)"
         id="g20" /><g
         id="g22"><g
           clip-path="url(#clipPath28)"
           id="g24"><path
             id="path30"
             style="fill:#231f20;fill-opacity:1;fill-rule:nonzero;stroke:none"
             d="m 3446.55,412.102 h 90.5 v 170.156 c 0,44.547 14.24,115.449 79.8,115.449 58.18,0 58.82,-57.418 58.82,-99.949 V 412.102 h 90.56 v 219.461 c 0,78.234 -35.83,136.382 -118.29,136.382 -47.4,0 -85.82,-15.562 -114.14,-55.433 h -1.42 v 47.258 h -85.83 V 412.102"
             inkscape:connector-curvature="0" /><path
             id="path32"
             style="fill:#231f20;fill-opacity:1;fill-rule:nonzero;stroke:none"
             d="m 2286.9,586.988 c 0,46.586 16.2,110.719 75,110.719 58.17,0 81.14,-62.144 81.14,-110.719 0,-49.308 -19.61,-112.797 -79.77,-112.797 -59.47,0 -76.37,64.864 -76.37,112.797 m 159.53,-174.886 h 87.84 v 506.355 h -90.55 V 719.344 h -1.4 c -26.98,33.039 -58.74,48.601 -104.11,48.601 -106.68,0 -145.95,-85.093 -145.95,-180.957 0,-95.254 39.27,-182.972 145.95,-182.972 42.63,0 79.85,13.457 106.77,47.289 h 1.45 v -39.203"
             inkscape:connector-curvature="0" /><path
             id="path34"
             style="fill:#231f20;fill-opacity:1;fill-rule:nonzero;stroke:none"
             d="m 2598.76,412.094 h 90.62 v 347.73 h -90.62 z m 0,411.195 h 90.62 v 86.438 h -90.62 v -86.438"
             inkscape:connector-curvature="0" /><path
             id="path36"
             style="fill:#231f20;fill-opacity:1;fill-rule:nonzero;stroke:none"
             d="m 2998.14,756.441 c -25.01,7.387 -51.37,11.473 -87.86,11.473 -108.85,0 -168.26,-79.66 -168.26,-180.258 0,-105.996 57.4,-183.64 171.62,-183.64 37.16,0 64.22,3.414 90.58,11.445 l -4.01,74.992 c -15.56,-6.805 -43.96,-16.262 -69.58,-16.262 -63.64,0 -94,49.301 -94,113.465 0,65.535 35.76,110.051 91.95,110.051 27.67,0 45.22,-5.453 61.47,-12.812 l 8.09,71.546"
             inkscape:connector-curvature="0" /><path
             id="path38"
             style="fill:#231f20;fill-opacity:1;fill-rule:nonzero;stroke:none"
             d="m 1495.95,663.984 c 30.35,22.914 68.89,37.743 107.45,37.743 53.33,0 78.38,-18.914 78.38,-74.961 h -50.04 c -37.8,0 -82.44,-3.356 -116.91,-20.2 -34.5,-16.875 -59.49,-47.293 -59.49,-99.222 0,-66.176 60.16,-103.313 121.67,-103.313 41.22,0 86.47,21.551 107.45,60.047 h 1.38 c 0.64,-10.801 0.64,-33.715 4.06,-51.961 h 79.72 c -2.14,27.063 -3.33,51.289 -4.03,77.59 -0.7,25.691 -1.32,52.027 -1.32,87.164 v 44.524 c 0,102.609 -44.02,146.57 -150.1,146.57 -38.47,0 -85.82,-10.129 -120.97,-26.36 z m 45.89,-151.269 c 0,53.363 60.16,60.07 100.74,60.07 h 39.2 c 0,-27.027 -4.05,-51.984 -18.89,-71.601 -14.25,-18.825 -35.84,-31 -63.55,-31 -32.48,0 -57.5,12.816 -57.5,42.531"
             inkscape:connector-curvature="0" /><path
             id="path40"
             style="fill:#231f20;fill-opacity:1;fill-rule:nonzero;stroke:none"
             d="m 2142.3,759.785 h -90.52 V 589.688 c 0,-44.606 -14.22,-115.512 -79.82,-115.512 -58.09,0 -58.73,57.453 -58.73,99.98 v 185.629 h -90.55 V 540.379 c 0,-78.254 35.81,-136.379 118.23,-136.379 47.29,0 86.52,21.629 114.19,55.375 h 1.4 v -47.258 h 85.8 v 347.668"
             inkscape:connector-curvature="0" /><path
             id="path42"
             style="fill:#231f20;fill-opacity:1;fill-rule:nonzero;stroke:none"
             d="m 3035.29,583.555 c 0,-99.867 66.96,-179.555 181.81,-179.555 115.61,0 182.49,79.688 182.49,179.555 0,114.84 -79.02,184.402 -182.49,184.402 -102.8,0 -181.81,-69.562 -181.81,-184.402 m 94.64,10.769 c 0,52.047 28.39,103.371 87.17,103.371 59.54,0 87.88,-50.007 87.88,-103.371 0,-58 -18.27,-120.125 -87.88,-120.125 -68.96,0 -87.17,62.821 -87.17,120.125"
             inkscape:connector-curvature="0" /><path
             id="path44"
             style="fill:#1c5084;fill-opacity:1;fill-rule:nonzero;stroke:none"
             d="M 1134.74,659.246 H 837.832 v 78.613 h 296.908 z m 0,-139.332 H 837.832 v 78.527 h 296.908 z m -147.037,411.75 c -167.473,0 -303.242,-135.656 -303.242,-302.863 0,-167.328 135.769,-302.891 303.242,-302.891 167.447,0 303.157,135.563 303.157,302.891 0,167.207 -135.71,302.863 -303.157,302.863"
             inkscape:connector-curvature="0" /></g></g></g></g></svg>